<svg width="32" height="32" viewBox="0 0 32 32" fill="none" xmlns="http://www.w3.org/2000/svg">
<path d="M26.9325 22.6936C26.853 22.6371 23.7455 15.8826 23.5695 15.5821C23.6204 15.4217 23.6291 15.251 23.595 15.0863C23.5608 14.9216 23.4849 14.7685 23.3745 14.6416C22.1545 13.5616 19.181 16.3516 18.0045 17.4186C17.4865 17.9686 13.898 21.2756 15.002 22.6636C15.1224 22.7768 15.2698 22.8574 15.4301 22.8976C15.5904 22.9379 15.7584 22.9365 15.918 22.8936L20.542 25.3256L18.3 27.4776C18.179 27.5906 18.0821 27.7269 18.0151 27.8783C17.9481 28.0296 17.9123 28.193 17.91 28.3586C17.9251 28.6046 17.9943 28.8444 18.1127 29.0606C18.2311 29.2769 18.3958 29.4643 18.595 29.6096C18.7096 29.7296 18.8468 29.8258 18.9986 29.8927C19.1505 29.9597 19.314 29.9961 19.48 29.9998C19.6459 30.0035 19.8109 29.9745 19.9656 29.9144C20.1203 29.8543 20.2616 29.7643 20.3815 29.6496L23.3845 26.7721C25.7525 27.5791 28.0595 24.9436 26.9325 22.6936ZM15.8225 21.9026C15.817 21.4591 16.815 19.9626 18.695 18.1396C20.6025 16.3261 22.106 15.4481 22.5835 15.4171C22.3155 16.1861 21.5155 17.3831 19.681 19.1701C17.8295 20.9031 16.592 21.6806 15.8225 21.9026ZM18.6685 11.9486C18.6029 11.9511 18.5384 11.9666 18.4787 11.9941C18.4191 12.0216 18.3654 12.0606 18.3209 12.1089C18.2763 12.1571 18.2417 12.2137 18.2189 12.2753C18.1962 12.3369 18.1859 12.4024 18.1885 12.4681L18.2645 14.4081C18.2697 14.5407 18.3274 14.6658 18.4249 14.7558C18.5224 14.8459 18.6516 14.8936 18.7842 14.8883C18.9169 14.8831 19.042 14.8254 19.132 14.7279C19.2221 14.6304 19.2697 14.5012 19.2645 14.3686L19.188 12.4286C19.1863 12.3626 19.1714 12.2977 19.1441 12.2376C19.1169 12.1775 19.0779 12.1235 19.0294 12.0787C18.9809 12.034 18.924 11.9994 18.8619 11.977C18.7998 11.9547 18.7339 11.945 18.668 11.9486H18.6685ZM13.0505 17.3896C12.9193 17.3805 12.7897 17.4235 12.6899 17.5092C12.5902 17.595 12.5281 17.7165 12.5173 17.8476C12.5065 17.9787 12.5477 18.1088 12.632 18.2098C12.7164 18.3107 12.8371 18.3744 12.968 18.3871L14.903 18.5471C15.0353 18.558 15.1666 18.5159 15.2679 18.4301C15.3692 18.3442 15.4323 18.2217 15.4432 18.0893C15.4542 17.957 15.4121 17.8257 15.3263 17.7244C15.2404 17.6231 15.1178 17.56 14.9855 17.5491L13.0505 17.3896ZM16.173 16.2306C16.2185 16.278 16.2728 16.3161 16.333 16.3425C16.3932 16.369 16.458 16.3834 16.5237 16.3848C16.5894 16.3862 16.6548 16.3746 16.7161 16.3508C16.7773 16.327 16.8333 16.2913 16.8807 16.2458C16.9282 16.2003 16.9663 16.146 16.9927 16.0858C17.0192 16.0256 17.0335 15.9608 17.035 15.8951C17.0364 15.8294 17.0248 15.764 17.001 15.7028C16.9771 15.6415 16.9415 15.5855 16.896 15.5381L15.7345 14.3256C15.6419 14.233 15.5168 14.1803 15.3859 14.1789C15.2549 14.1775 15.1287 14.2274 15.0342 14.318C14.9396 14.4086 14.8844 14.5327 14.8802 14.6635C14.8761 14.7944 14.9234 14.9217 15.012 15.0181L16.173 16.2306ZM9.537 19.2651C8.27304 19.2667 7.06139 19.7698 6.16815 20.6641C5.27492 21.5584 4.77313 22.7706 4.773 24.0346C5.034 30.3576 14.0475 30.3506 14.3065 24.0346C14.3058 22.7699 13.8031 21.5572 12.9088 20.6629C12.0145 19.7687 10.8017 19.2656 9.537 19.2651ZM10.493 23.1086V25.0306C10.5054 25.4289 10.3599 25.816 10.0881 26.1075C9.81627 26.399 9.44025 26.5712 9.042 26.5866H8.6115C8.27783 26.564 7.96518 26.4156 7.73681 26.1713C7.50845 25.9269 7.38141 25.605 7.38141 25.2706C7.38141 24.9361 7.50845 24.6142 7.73681 24.3699C7.96518 24.1256 8.27783 23.9771 8.6115 23.9546C8.74658 23.9542 8.87661 24.0059 8.97443 24.0991C9.07225 24.1923 9.13031 24.3196 9.1365 24.4546C9.13905 24.5193 9.12854 24.5838 9.10559 24.6444C9.08264 24.7049 9.04772 24.7603 9.00292 24.807C8.95811 24.8538 8.90435 24.891 8.84483 24.9166C8.78531 24.9421 8.72126 24.9553 8.6565 24.9556C8.499 24.9351 8.378 25.0776 8.3765 25.2706C8.3765 25.4406 8.4815 25.5856 8.6115 25.5856H9.0415C9.17424 25.5703 9.29574 25.5037 9.37994 25.3999C9.46415 25.2962 9.50438 25.1636 9.492 25.0306V21.9776C9.49437 21.8806 9.52459 21.7864 9.57905 21.7062C9.63351 21.626 9.7099 21.5632 9.79911 21.5252C9.88832 21.4873 9.98657 21.4758 10.0821 21.4922C10.1777 21.5085 10.2665 21.5521 10.338 21.6176C10.8092 22.0729 11.3107 22.4958 11.839 22.8836C11.913 22.889 11.9848 22.9112 12.049 22.9484C12.1132 22.9857 12.1681 23.037 12.2095 23.0986C12.2467 23.1528 12.2729 23.2138 12.2866 23.2781C12.3002 23.3425 12.301 23.4089 12.2889 23.4735C12.2768 23.5382 12.2521 23.5998 12.2162 23.6549C12.1803 23.71 12.1338 23.7575 12.0795 23.7946C11.8345 23.9646 11.6445 24.0946 10.493 23.1086ZM9.537 17.2136C10.801 17.2134 12.0132 16.7116 12.9075 15.8184C13.8017 14.9252 14.3049 13.7135 14.3065 12.4496C14.053 6.12656 5.0265 6.12306 4.773 12.4496C4.77432 13.7126 5.27667 14.9236 6.1698 15.8168C7.06294 16.7099 8.27391 17.2122 9.537 17.2136ZM7.876 12.1491H8.651V11.3086C8.6514 10.8188 8.84612 10.3493 9.19241 10.003C9.5387 9.65668 10.0083 9.46196 10.498 9.46156C11.015 9.45006 11.978 9.75156 11.629 10.4226C11.5594 10.5346 11.4484 10.6148 11.3201 10.6457C11.1918 10.6765 11.0565 10.6557 10.9435 10.5876C10.8099 10.5048 10.6557 10.4614 10.4985 10.4626C10.3874 10.4624 10.2773 10.4842 10.1746 10.5267C10.0719 10.5692 9.97858 10.6315 9.89999 10.7101C9.82141 10.7886 9.7591 10.882 9.71663 10.9847C9.67416 11.0874 9.65237 11.1974 9.6525 11.3086V12.1491H10.598C10.7307 12.1491 10.858 12.2018 10.9519 12.2957C11.0458 12.3895 11.0985 12.5168 11.0985 12.6496C11.0985 12.7823 11.0458 12.9096 10.9519 13.0035C10.858 13.0973 10.7307 13.1501 10.598 13.1501H9.6525V14.9366C9.6525 15.0693 9.59977 15.1966 9.50591 15.2905C9.41204 15.3843 9.28474 15.4371 9.152 15.4371C9.01926 15.4371 8.89195 15.3843 8.79809 15.2905C8.70423 15.1966 8.6515 15.0693 8.6515 14.9366V13.1501H7.876C7.74326 13.1501 7.61595 13.0973 7.52209 13.0035C7.42823 12.9096 7.3755 12.7823 7.3755 12.6496C7.3755 12.5168 7.42823 12.3895 7.52209 12.2957C7.61595 12.2018 7.74326 12.1491 7.876 12.1491ZM20.0065 11.6486C21.2888 11.6464 22.5178 11.1358 23.4241 10.2286C24.3303 9.32144 24.8397 8.09184 24.8405 6.80956C24.5775 0.393563 15.431 0.400063 15.167 6.80956C15.1689 8.09246 15.6793 9.32228 16.5865 10.2294C17.4937 11.1365 18.7236 11.6468 20.0065 11.6486ZM17.319 5.41356C17.3186 5.07187 17.4538 4.74397 17.6949 4.50184C17.936 4.25971 18.2633 4.12312 18.605 4.12206H21.4025C21.7446 4.12299 22.0724 4.2593 22.3144 4.50121C22.5563 4.74312 22.6926 5.07095 22.6935 5.41306V8.21056C22.6926 8.55226 22.5561 8.87963 22.3141 9.12082C22.072 9.36202 21.7442 9.49733 21.4025 9.49706H18.605C18.4361 9.49713 18.2688 9.46389 18.1127 9.39926C17.9566 9.33462 17.8148 9.23985 17.6953 9.12037C17.5759 9.00089 17.4812 8.85904 17.4166 8.70292C17.352 8.54681 17.3189 8.3795 17.319 8.21056V5.41356Z" fill="black"/>
<path d="M18.605 8.49605H21.4025C21.4403 8.49658 21.4778 8.4896 21.5129 8.47553C21.548 8.46146 21.58 8.44056 21.607 8.41406C21.6339 8.38755 21.6554 8.35596 21.6701 8.32112C21.6847 8.28627 21.6924 8.24886 21.6925 8.21105V5.41305C21.6924 5.33617 21.6618 5.26249 21.6074 5.20813C21.5531 5.15377 21.4794 5.12318 21.4025 5.12305H18.605C18.5672 5.12318 18.5298 5.1308 18.4949 5.14548C18.4601 5.16016 18.4285 5.18161 18.402 5.20858C18.3755 5.23555 18.3546 5.26751 18.3405 5.3026C18.3264 5.3377 18.3195 5.37524 18.32 5.41305V8.21055C18.3196 8.24808 18.3267 8.28533 18.3409 8.32008C18.3551 8.35484 18.376 8.38642 18.4026 8.41297C18.4291 8.43951 18.4607 8.46049 18.4955 8.47467C18.5302 8.48885 18.5675 8.49595 18.605 8.49555V8.49605ZM20.0065 5.43805C20.3663 5.44491 20.709 5.59266 20.9611 5.84954C21.2131 6.10642 21.3543 6.45193 21.3543 6.8118C21.3543 7.17166 21.2131 7.51717 20.9611 7.77405C20.709 8.03093 20.3663 8.17868 20.0065 8.18555C19.6467 8.17868 19.3039 8.03093 19.0519 7.77405C18.7999 7.51717 18.6587 7.17166 18.6587 6.8118C18.6587 6.45193 18.7999 6.10642 19.0519 5.84954C19.3039 5.59266 19.6467 5.44491 20.0065 5.43805Z" fill="black"/>
<path d="M20.0065 7.18496C20.1054 7.18496 20.2003 7.14567 20.2703 7.07572C20.3402 7.00576 20.3795 6.91089 20.3795 6.81196C20.3795 6.71304 20.3402 6.61817 20.2703 6.54821C20.2003 6.47826 20.1054 6.43896 20.0065 6.43896C19.91 6.4425 19.8186 6.48332 19.7516 6.55284C19.6846 6.62235 19.6472 6.71515 19.6472 6.81171C19.6472 6.90828 19.6846 7.00108 19.7516 7.07059C19.8186 7.14011 19.91 7.18143 20.0065 7.18496Z" fill="black"/>
</svg>
