<svg width="46" height="47" viewBox="0 0 46 47" fill="none" xmlns="http://www.w3.org/2000/svg">
<mask id="path-1-inside-1_1_4366" fill="white">
<path d="M0.94928 23.5C0.425007 23.5 -0.00204502 23.9252 0.0195835 24.4491C0.193671 28.6653 1.52499 32.7593 3.8762 36.2781C6.40347 40.0604 9.99558 43.0084 14.1983 44.7492C18.401 46.49 23.0255 46.9455 27.4871 46.0581C31.9486 45.1706 36.0468 42.9801 39.2635 39.7635C42.4801 36.5468 44.6706 32.4486 45.5581 27.9871C46.4455 23.5255 45.99 18.901 44.2492 14.6983C42.5084 10.4956 39.5604 6.90347 35.7781 4.3762C32.2593 2.025 28.1653 0.693672 23.9491 0.519584C23.4252 0.497955 23 0.925007 23 1.44928C23 1.97355 23.4253 2.39633 23.949 2.41991C27.7896 2.59277 31.5168 3.81223 34.7233 5.95479C38.1934 8.27345 40.8981 11.569 42.4952 15.4248C44.0923 19.2806 44.5102 23.5234 43.696 27.6167C42.8818 31.71 40.8721 35.4699 37.921 38.421C34.9699 41.3721 31.21 43.3818 27.1167 44.196C23.0234 45.0102 18.7806 44.5923 14.9248 42.9952C11.069 41.3981 7.77345 38.6934 5.45479 35.2233C3.31223 32.0168 2.09277 28.2896 1.91991 24.449C1.89633 23.9253 1.47355 23.5 0.94928 23.5Z"/>
</mask>
<path d="M0.94928 23.5C0.425007 23.5 -0.00204502 23.9252 0.0195835 24.4491C0.193671 28.6653 1.52499 32.7593 3.8762 36.2781C6.40347 40.0604 9.99558 43.0084 14.1983 44.7492C18.401 46.49 23.0255 46.9455 27.4871 46.0581C31.9486 45.1706 36.0468 42.9801 39.2635 39.7635C42.4801 36.5468 44.6706 32.4486 45.5581 27.9871C46.4455 23.5255 45.99 18.901 44.2492 14.6983C42.5084 10.4956 39.5604 6.90347 35.7781 4.3762C32.2593 2.025 28.1653 0.693672 23.9491 0.519584C23.4252 0.497955 23 0.925007 23 1.44928C23 1.97355 23.4253 2.39633 23.949 2.41991C27.7896 2.59277 31.5168 3.81223 34.7233 5.95479C38.1934 8.27345 40.8981 11.569 42.4952 15.4248C44.0923 19.2806 44.5102 23.5234 43.696 27.6167C42.8818 31.71 40.8721 35.4699 37.921 38.421C34.9699 41.3721 31.21 43.3818 27.1167 44.196C23.0234 45.0102 18.7806 44.5923 14.9248 42.9952C11.069 41.3981 7.77345 38.6934 5.45479 35.2233C3.31223 32.0168 2.09277 28.2896 1.91991 24.449C1.89633 23.9253 1.47355 23.5 0.94928 23.5Z" stroke="#00C013" stroke-width="4" mask="url(#path-1-inside-1_1_4366)"/>
</svg>
