<svg width="20" height="20" viewBox="0 0 20 20" fill="none" xmlns="http://www.w3.org/2000/svg">
<path d="M12.825 4.34169L14 6.69169C14.1584 7.01669 14.5834 7.32503 14.9417 7.39169L17.0667 7.74169C18.425 7.96669 18.7417 8.95003 17.7667 9.93336L16.1084 11.5917C15.8334 11.8667 15.675 12.4084 15.7667 12.8L16.2417 14.85C16.6167 16.4667 15.75 17.1 14.325 16.25L12.3334 15.0667C11.975 14.85 11.375 14.85 11.0167 15.0667L9.02503 16.25C7.60003 17.0917 6.73337 16.4667 7.10837 14.85L7.58337 12.8C7.65837 12.4 7.50003 11.8584 7.22503 11.5834L5.5667 9.92503C4.5917 8.95003 4.90837 7.96669 6.2667 7.73336L8.3917 7.38336C8.75003 7.32503 9.17503 7.00836 9.33337 6.68336L10.5084 4.33336C11.15 3.06669 12.1834 3.06669 12.825 4.34169Z" fill="#030303"/>
<path d="M6.66663 4.79163H1.66663C1.32496 4.79163 1.04163 4.50829 1.04163 4.16663C1.04163 3.82496 1.32496 3.54163 1.66663 3.54163H6.66663C7.00829 3.54163 7.29163 3.82496 7.29163 4.16663C7.29163 4.50829 7.00829 4.79163 6.66663 4.79163Z" fill="#030303"/>
<path d="M4.16663 16.4584H1.66663C1.32496 16.4584 1.04163 16.175 1.04163 15.8334C1.04163 15.4917 1.32496 15.2084 1.66663 15.2084H4.16663C4.50829 15.2084 4.79163 15.4917 4.79163 15.8334C4.79163 16.175 4.50829 16.4584 4.16663 16.4584Z" fill="#030303"/>
<path d="M2.49996 10.625H1.66663C1.32496 10.625 1.04163 10.3417 1.04163 10C1.04163 9.65833 1.32496 9.375 1.66663 9.375H2.49996C2.84163 9.375 3.12496 9.65833 3.12496 10C3.12496 10.3417 2.84163 10.625 2.49996 10.625Z" fill="#030303"/>
</svg>
