<svg width="20" height="20" viewBox="0 0 20 20" fill="none" xmlns="http://www.w3.org/2000/svg">
<path d="M16.75 7.68336C15.2416 7.68336 14.625 6.6167 15.375 5.30836C15.8083 4.55003 15.55 3.58336 14.7916 3.15003L13.35 2.32503C12.6916 1.93336 11.8416 2.1667 11.45 2.82503L11.3583 2.98336C10.6083 4.2917 9.37496 4.2917 8.61663 2.98336L8.52496 2.82503C8.14996 2.1667 7.29996 1.93336 6.64163 2.32503L5.19996 3.15003C4.44163 3.58336 4.18329 4.55836 4.61663 5.3167C5.37496 6.6167 4.75829 7.68336 3.24996 7.68336C2.38329 7.68336 1.66663 8.3917 1.66663 9.2667V10.7334C1.66663 11.6 2.37496 12.3167 3.24996 12.3167C4.75829 12.3167 5.37496 13.3834 4.61663 14.6917C4.18329 15.45 4.44163 16.4167 5.19996 16.85L6.64163 17.675C7.29996 18.0667 8.14996 17.8334 8.54163 17.175L8.63329 17.0167C9.38329 15.7084 10.6166 15.7084 11.375 17.0167L11.4666 17.175C11.8583 17.8334 12.7083 18.0667 13.3666 17.675L14.8083 16.85C15.5666 16.4167 15.825 15.4417 15.3916 14.6917C14.6333 13.3834 15.25 12.3167 16.7583 12.3167C17.625 12.3167 18.3416 11.6084 18.3416 10.7334V9.2667C18.3333 8.40003 17.625 7.68336 16.75 7.68336ZM9.99996 12.7084C8.50829 12.7084 7.29163 11.4917 7.29163 10C7.29163 8.50836 8.50829 7.2917 9.99996 7.2917C11.4916 7.2917 12.7083 8.50836 12.7083 10C12.7083 11.4917 11.4916 12.7084 9.99996 12.7084Z" fill="#030303"/>
</svg>
