<svg width="20" height="20" viewBox="0 0 20 20" fill="none" xmlns="http://www.w3.org/2000/svg">
<path d="M2.29164 15.5417C1.94997 15.5417 1.66664 15.2584 1.66664 14.9167V10.1667C1.62497 7.90837 2.46664 5.77504 4.0333 4.17504C5.59997 2.58337 7.69997 1.70837 9.9583 1.70837C14.575 1.70837 18.3333 5.46671 18.3333 10.0834V14.8334C18.3333 15.175 18.05 15.4584 17.7083 15.4584C17.3666 15.4584 17.0833 15.175 17.0833 14.8334V10.0834C17.0833 6.15837 13.8916 2.95837 9.9583 2.95837C8.0333 2.95837 6.24997 3.70004 4.92497 5.05004C3.59164 6.40837 2.8833 8.21671 2.91664 10.15V14.9084C2.91664 15.2584 2.64164 15.5417 2.29164 15.5417Z" fill="#030303"/>
<path d="M4.94996 10.375H4.84163C3.09163 10.375 1.66663 11.8 1.66663 13.55V15.1167C1.66663 16.8667 3.09163 18.2917 4.84163 18.2917H4.94996C6.69996 18.2917 8.12496 16.8667 8.12496 15.1167V13.55C8.12496 11.8 6.69996 10.375 4.94996 10.375Z" fill="#030303"/>
<path d="M15.1583 10.375H15.05C13.3 10.375 11.875 11.8 11.875 13.55V15.1167C11.875 16.8667 13.3 18.2917 15.05 18.2917H15.1583C16.9083 18.2917 18.3333 16.8667 18.3333 15.1167V13.55C18.3333 11.8 16.9083 10.375 15.1583 10.375Z" fill="#030303"/>
</svg>
