<svg width="20" height="20" viewBox="0 0 20 20" fill="none" xmlns="http://www.w3.org/2000/svg">
<path d="M13.4916 1.66663H6.50829C3.47496 1.66663 1.66663 3.47496 1.66663 6.50829V13.4833C1.66663 16.525 3.47496 18.3333 6.50829 18.3333H13.4833C16.5166 18.3333 18.325 16.525 18.325 13.4916V6.50829C18.3333 3.47496 16.525 1.66663 13.4916 1.66663ZM14.1666 14.5583C12.7416 14.5583 11.4083 13.9416 10.3416 12.8C9.13329 13.8916 7.55829 14.5583 5.83329 14.5583C5.49163 14.5583 5.20829 14.275 5.20829 13.9333C5.20829 13.5916 5.49163 13.3083 5.83329 13.3083C8.72496 13.3083 11.1166 11.0166 11.425 8.08329H9.99996H5.84163C5.49996 8.08329 5.21663 7.79996 5.21663 7.45829C5.21663 7.11663 5.49996 6.84163 5.84163 6.84163H9.37496V6.06663C9.37496 5.72496 9.65829 5.44163 9.99996 5.44163C10.3416 5.44163 10.625 5.72496 10.625 6.06663V6.84163H12.0333C12.05 6.84163 12.0666 6.83329 12.0833 6.83329C12.1 6.83329 12.1166 6.84163 12.1333 6.84163H14.1583C14.5 6.84163 14.7833 7.12496 14.7833 7.46663C14.7833 7.80829 14.5 8.09163 14.1583 8.09163H12.675C12.55 9.51663 12.0166 10.825 11.2 11.8916C12.0333 12.8166 13.075 13.3166 14.1666 13.3166C14.5083 13.3166 14.7916 13.6 14.7916 13.9416C14.7916 14.2833 14.5083 14.5583 14.1666 14.5583Z" fill="#030303"/>
</svg>
