<svg width="20" height="20" viewBox="0 0 20 20" fill="none" xmlns="http://www.w3.org/2000/svg">
<path d="M16.0333 4.64997H15.7L12.8833 1.8333C12.6583 1.6083 12.2916 1.6083 12.0583 1.8333C11.8333 2.0583 11.8333 2.42497 12.0583 2.6583L14.05 4.64997H5.94996L7.94163 2.6583C8.16663 2.4333 8.16663 2.06663 7.94163 1.8333C7.71663 1.6083 7.34996 1.6083 7.11663 1.8333L4.30829 4.64997H3.97496C3.22496 4.64997 1.66663 4.64997 1.66663 6.7833C1.66663 7.59163 1.83329 8.12497 2.18329 8.47497C2.38329 8.6833 2.62496 8.79163 2.88329 8.84997C3.12496 8.9083 3.38329 8.91663 3.63329 8.91663H16.3666C16.625 8.91663 16.8666 8.89997 17.1 8.84997C17.8 8.6833 18.3333 8.1833 18.3333 6.7833C18.3333 4.64997 16.775 4.64997 16.0333 4.64997Z" fill="#030303"/>
<path d="M15.875 10H4.05838C3.54171 10 3.15005 10.4583 3.23338 10.9667L3.93338 15.25C4.16671 16.6833 4.79171 18.3333 7.56671 18.3333H12.2417C15.05 18.3333 15.55 16.925 15.85 15.35L16.6917 10.9917C16.7917 10.475 16.4 10 15.875 10ZM8.84171 15.375C8.84171 15.7 8.58338 15.9583 8.26671 15.9583C7.94171 15.9583 7.68338 15.7 7.68338 15.375V12.625C7.68338 12.3083 7.94171 12.0417 8.26671 12.0417C8.58338 12.0417 8.84171 12.3083 8.84171 12.625V15.375ZM12.4084 15.375C12.4084 15.7 12.15 15.9583 11.825 15.9583C11.5084 15.9583 11.2417 15.7 11.2417 15.375V12.625C11.2417 12.3083 11.5084 12.0417 11.825 12.0417C12.15 12.0417 12.4084 12.3083 12.4084 12.625V15.375Z" fill="#030303"/>
</svg>
