<svg width="38" height="38" viewBox="0 0 38 38" fill="none" xmlns="http://www.w3.org/2000/svg">
<g clip-path="url(#clip0_1361_8271)">
<mask id="mask0_1361_8271" style="mask-type:luminance" maskUnits="userSpaceOnUse" x="0" y="0" width="38" height="38">
<path d="M0 0.000114441H37.9999V38H0V0.000114441Z" fill="white"/>
</mask>
<g mask="url(#mask0_1361_8271)">
<path d="M20.5184 19.6797H20.4196V16.53H5.40333V19.6797H5.30447C4.3835 19.6797 3.63678 20.4263 3.63678 21.3473C3.63678 22.2683 4.3835 23.015 5.30447 23.015H5.40333V23.0683C5.40333 26.0617 7.82991 28.4883 10.8232 28.4883H14.9997C17.993 28.4883 20.4196 26.0617 20.4196 23.0683V23.015H20.5184C21.4394 23.015 22.1861 22.2683 22.1861 21.3473C22.1861 20.4263 21.4394 19.6797 20.5184 19.6797Z" fill="#FED2A4"/>
<path d="M22.1861 21.3473C22.1861 22.2685 21.4396 23.015 20.5184 23.015H20.4197V23.0685C20.4197 26.0616 17.9931 28.4883 15 28.4883H13.6773C16.6709 28.4883 19.097 26.0616 19.097 23.0685V16.53H20.4197V19.6797H20.5184C20.979 19.6797 21.3956 19.8662 21.6976 20.1682C21.8527 20.3228 21.9757 20.5066 22.0595 20.709C22.1433 20.9114 22.1863 21.1283 22.1861 21.3473Z" fill="#FFBD86"/>
<path d="M17.3815 37.4468V33.3302C17.3815 32.3912 16.9208 31.4926 16.1593 30.9434C15.7732 30.6651 15.3252 30.4847 14.854 30.4178C14.2447 30.3321 14.2366 30.3506 14.2366 29.7126V28.4883H11.5863V29.7126C11.5863 30.3506 11.5782 30.3321 10.9689 30.4178C10.4977 30.4847 10.0497 30.6651 9.66355 30.9434C8.902 31.4926 8.44132 32.3912 8.44132 33.3302V37.4468H17.3815Z" fill="#FED2A4"/>
<path d="M17.3812 33.33V37.4468H8.44132V33.33C8.44132 32.3915 8.9017 31.4922 9.66363 30.9432C10.0499 30.6653 10.4976 30.4851 10.9686 30.4178C11.3174 30.369 11.4696 30.3535 11.5347 30.2301C11.6839 30.4015 11.8797 30.556 12.1361 30.672C12.6261 30.8944 13.1965 30.8944 13.6865 30.672C13.9429 30.556 14.1388 30.4015 14.288 30.2301C14.353 30.3535 14.5052 30.369 14.854 30.4178C15.3251 30.4849 15.7729 30.6651 16.159 30.9432C16.9209 31.4922 17.3812 32.3915 17.3812 33.33Z" fill="#F4D902"/>
<path d="M17.3812 33.33V37.4468H15.9033V33.33C15.9033 32.3915 15.4429 31.4922 14.6811 30.9432C14.4467 30.7745 14.1888 30.6413 13.9155 30.5479C14.0546 30.4608 14.1801 30.3537 14.288 30.2301C14.353 30.3535 14.5052 30.369 14.854 30.4178C15.3251 30.4849 15.7729 30.6651 16.159 30.9432C16.9209 31.4922 17.3812 32.3915 17.3812 33.33Z" fill="#E2CA00"/>
<path d="M20.3994 15.0749C20.3604 11.6489 17.5752 8.88371 14.1445 8.88371H11.6591C8.22853 8.88371 5.44333 11.6487 5.40415 15.0745C5.38923 16.3844 5.40326 23.0684 5.40326 23.0684C5.40326 23.0684 6.92132 20.8837 7.20313 18.1233C7.23282 17.833 7.51915 17.6415 7.80029 17.7197C10.1757 18.3806 14.0819 18.98 18.4403 18.9481C18.534 18.9474 18.6253 18.9783 18.6994 19.0358C18.7734 19.0934 18.8259 19.1742 18.8483 19.2653C19.3759 21.3989 20.4003 23.0684 20.4003 23.0684C20.4003 23.0684 20.4003 15.0749 20.3994 15.0749Z" fill="#3E5959"/>
<path d="M13.9535 25.6909C13.7819 25.285 13.3799 25.0002 12.9114 25.0002C12.443 25.0002 12.0411 25.285 11.8694 25.6909" fill="black"/>
<path d="M14.7333 22.9053L15.4993 22.3912L14.7333 22.9053Z" fill="black"/>
<path d="M14.7333 22.9053L15.4993 22.3912" stroke="black" stroke-miterlimit="10" stroke-linecap="round" stroke-linejoin="round"/>
<path d="M11.0896 22.9053L10.3237 22.3912L11.0896 22.9053Z" fill="black"/>
<path d="M11.0896 22.9053L10.3237 22.3912" stroke="black" stroke-miterlimit="10" stroke-linecap="round" stroke-linejoin="round"/>
<path d="M26.119 0.553341C21.5861 0.556606 17.8868 4.25878 17.887 8.79167C17.887 10.6177 18.4815 12.3046 19.4869 13.6702C19.5984 13.8217 19.631 14.0172 19.5705 14.1952L18.8414 16.3386C18.6885 16.7882 19.1148 17.2193 19.566 17.0715L22.1812 16.2152C22.3216 16.1694 22.4741 16.1792 22.6075 16.2425C23.6559 16.7384 24.8257 17.0197 26.0603 17.0292C30.6194 17.0643 34.3616 13.3534 34.363 8.7942C34.3646 4.24111 30.6725 0.550076 26.119 0.553341Z" fill="#030303"/>
<path d="M34.3628 8.79383C34.3614 13.3531 30.6194 17.0642 26.0601 17.029C25.2166 17.023 24.3791 16.8876 23.5768 16.6273C23.922 16.6733 24.2697 16.6977 24.6179 16.7004C29.1772 16.7355 32.9193 13.0244 32.9206 8.46519C32.922 4.80437 30.5359 1.70099 27.2334 0.627495C31.2601 1.1684 34.3648 4.61837 34.3628 8.79383Z" fill="#030303"/>
<path d="M28.8254 9.16571L28.4591 8.79944L30.0693 7.22223C30.711 6.58053 30.711 5.54014 30.0693 4.89845C29.4275 4.25668 28.3872 4.25668 27.7454 4.89845L26.1518 6.49206L24.5582 4.89845C23.9164 4.25668 22.876 4.25668 22.2342 4.89845C21.5926 5.54014 21.5926 6.58053 22.2342 7.22223L23.8444 8.79944L23.4781 9.16571L22.2245 10.4158C21.5989 11.0395 21.5954 12.0516 22.2166 12.6797C22.8374 13.3074 23.8488 13.3154 24.4795 12.6976L26.1518 11.0596L27.824 12.6976C28.4547 13.3154 29.4662 13.3074 30.0869 12.6797C30.7081 12.0516 30.7046 11.0395 30.0791 10.4158L28.8254 9.16571Z" fill="#E2E2E2"/>
<path d="M30.0867 12.6797C29.5713 13.2006 28.7865 13.295 28.1746 12.9581C28.3107 12.8839 28.4352 12.7901 28.544 12.6797C29.1655 12.0513 29.162 11.0398 28.5364 10.4156L27.2824 9.16565C27.2346 9.11779 27.1966 9.06091 27.1709 8.9983C27.1451 8.93569 27.1321 8.86859 27.1324 8.80089C27.1328 8.73319 27.1465 8.66624 27.1729 8.6039C27.1993 8.54156 27.2378 8.48507 27.2862 8.43771L28.5267 7.22261C29.1683 6.58047 29.1683 5.54 28.5267 4.89853C28.4117 4.7831 28.28 4.68556 28.1361 4.60915C28.3735 4.483 28.6383 4.41721 28.9071 4.41759C29.3275 4.41759 29.7483 4.57746 30.0695 4.89853C30.711 5.54 30.711 6.58047 30.0695 7.22261L28.4592 8.79983L28.8251 9.16565L30.0791 10.4156C30.7047 11.0398 30.7082 12.0513 30.0867 12.6797Z" fill="#CECECE"/>
</g>
</g>
<defs>
<clipPath id="clip0_1361_8271">
<rect width="38" height="38" fill="white"/>
</clipPath>
</defs>
</svg>
