<svg width="32" height="32" viewBox="0 0 32 32" fill="none" xmlns="http://www.w3.org/2000/svg">
<path d="M27.9109 0H4.08906C1.83431 0 0 1.83438 0 4.08913V27.9109C0 30.1656 1.83431 32 4.08906 32H27.9109C30.1657 32 32 30.1656 32 27.9109V4.08913C32 1.83438 30.1657 0 27.9109 0ZM30.1151 27.9109C30.1151 29.1264 29.1263 30.1151 27.9109 30.1151H4.08906C2.87363 30.1151 1.88481 29.1263 1.88481 27.9109V24.473L8.08825 19.1948C8.19754 19.1016 8.33629 19.0499 8.47996 19.0491C8.62363 19.0482 8.76298 19.0982 8.87337 19.1901L12.7592 22.4169C13.1339 22.7279 13.6839 22.7024 14.0282 22.3577L23.2613 13.1106C23.4282 12.9434 23.6227 12.9272 23.7243 12.9324C23.8256 12.9376 24.0177 12.9737 24.1667 13.1571L30.1152 20.4815L30.1151 27.9109ZM30.1151 17.4916L25.6297 11.9687C25.4093 11.6976 25.1343 11.4757 24.8228 11.3174C24.5112 11.1592 24.1699 11.068 23.8209 11.0499C23.1166 11.0142 22.4261 11.2794 21.9275 11.7788L13.302 20.4176L10.0776 17.7401C9.62615 17.3641 9.05626 17.1598 8.4687 17.1633C7.88114 17.1668 7.31375 17.3779 6.86681 17.7594L1.88481 21.9982V4.08913C1.88481 2.87369 2.87363 1.88488 4.08906 1.88488H27.9109C29.1264 1.88488 30.1151 2.87369 30.1151 4.08913V17.4916Z" fill="black"/>
<path d="M10.0734 3.93701C7.56744 3.93701 5.52881 5.97576 5.52881 8.48157C5.52881 10.9874 7.5675 13.0261 10.0734 13.0261C12.5792 13.0261 14.6179 10.9874 14.6179 8.48157C14.6179 5.9757 12.5793 3.93701 10.0734 3.93701ZM10.0734 11.1413C8.60675 11.1413 7.41362 9.94814 7.41362 8.48157C7.41362 7.01495 8.60675 5.82182 10.0734 5.82182C11.54 5.82182 12.7331 7.01501 12.7331 8.48157C12.7331 9.94814 11.54 11.1413 10.0734 11.1413Z" fill="black"/>
</svg>
